<svg xmlns="http://www.w3.org/2000/svg" xmlns:xlink="http://www.w3.org/1999/xlink" width="21" height="18" viewBox="0 0 21 18">
    <defs>
        <path id="a" d="M20.903 8.806v8.792H.003V.014h20.9z"/>
    </defs>
    <g fill="none" fill-rule="evenodd">
        <mask id="b" fill="#fff">
            <use xlink:href="#a"/>
        </mask>
        <path fill="#FFF" d="M20.032 14.962h-1.35a2.186 2.186 0 0 0-2.133-1.759h-3.484V6.17h4.355c.24 0 .435.197.435.44v.44h-3.048a.438.438 0 0 0-.436.439v3.957c0 .243.195.44.436.44h5.225v3.077zm-3.483 1.759c-.72 0-1.307-.592-1.307-1.32 0-.725.584-1.316 1.303-1.318h.004c.72 0 1.305.591 1.306 1.317v.003c0 .727-.587 1.318-1.306 1.318zm-3.485-2.638h1.744c-.19.256-.327.554-.393.88h-1.35v-.88zm-8.71 2.638c-.72 0-1.306-.592-1.306-1.32 0-.727.586-1.318 1.307-1.318.72 0 1.306.591 1.306 1.319 0 .727-.586 1.319-1.306 1.319zM.872 7.928h1.742c.24 0 .435-.197.435-.44a.438.438 0 0 0-.435-.44H.87V6.17h5.226c.24 0 .435-.197.435-.44a.438.438 0 0 0-.435-.44H.87V3.532h11.323v9.672H9.232a.438.438 0 0 0-.436.44c0 .243.195.44.436.44h2.962v.88H6.488a2.186 2.186 0 0 0-2.133-1.76 2.186 2.186 0 0 0-2.134 1.76H.871V7.927zm3.048-6.853l.563.568.001.001.998 1.008H2.358l1.561-1.577zm6.533.697v.88h-3.74l-.87-.88h4.61zm4.79 9.233h.871V7.928h-.87v3.077zm4.79-1.319v1.32h-3.048V7.927h1.307c.96 0 1.741.788 1.741 1.758zm-1.306-2.6v-.477c0-.728-.586-1.32-1.306-1.32h-4.356V3.092a.438.438 0 0 0-.435-.44h-1.306V1.334a.438.438 0 0 0-.436-.44H4.971l-.744-.75a.433.433 0 0 0-.615 0L1.126 2.651h-.69a.438.438 0 0 0-.436.44v12.31c0 .243.195.44.435.44h1.786c.066.324.202.623.393.879h-.872a.438.438 0 0 0-.436.44c0 .242.195.439.436.439h2.616a2.186 2.186 0 0 0 2.13-1.759h7.927c.066.325.202.624.393.88h-.872a.438.438 0 0 0-.436.44c0 .242.195.439.436.439h2.616a2.186 2.186 0 0 0 2.13-1.759h1.786c.24 0 .435-.196.435-.44V9.687c0-1.305-.943-2.39-2.177-2.6z" mask="url(#b)"/>
    </g>
</svg>
